<svg id="visual" viewBox="0 0 1440 1024" width="1440" height="1024" xmlns="http://www.w3.org/2000/svg" xmlns:xlink="http://www.w3.org/1999/xlink" version="1.1"><rect x="0" y="0" width="1440" height="1024" fill="#c0e8fc"></rect><path d="M0 188L26.7 189.7C53.3 191.3 106.7 194.7 160 184.2C213.3 173.7 266.7 149.3 320 149.2C373.3 149 426.7 173 480 171.8C533.3 170.7 586.7 144.3 640 131.8C693.3 119.3 746.7 120.7 800 130.5C853.3 140.3 906.7 158.7 960 165.5C1013.3 172.3 1066.7 167.7 1120 159.3C1173.3 151 1226.7 139 1280 143.3C1333.3 147.7 1386.7 168.3 1413.3 178.7L1440 189L1440 0L1413.3 0C1386.7 0 1333.3 0 1280 0C1226.7 0 1173.3 0 1120 0C1066.7 0 1013.3 0 960 0C906.7 0 853.3 0 800 0C746.7 0 693.3 0 640 0C586.7 0 533.3 0 480 0C426.7 0 373.3 0 320 0C266.7 0 213.3 0 160 0C106.7 0 53.3 0 26.7 0L0 0Z" fill="#2e76e1" stroke-linecap="round" stroke-linejoin="miter"></path></svg>