<svg id="visual" viewBox="0 0 1440 1000" width="1440" height="1000" xmlns="http://www.w3.org/2000/svg" xmlns:xlink="http://www.w3.org/1999/xlink" version="1.1"><rect x="0" y="0" width="1440" height="1000" fill="#c0e8fc"></rect><path d="M441 0L405.8 27.8C370.7 55.7 300.3 111.3 268 166.8C235.7 222.3 241.3 277.7 267.7 333.2C294 388.7 341 444.3 376.7 500C412.3 555.7 436.7 611.3 447.5 666.8C458.3 722.3 455.7 777.7 440.3 833.2C425 888.7 397 944.3 383 972.2L369 1000L0 1000L0 972.2C0 944.3 0 888.7 0 833.2C0 777.7 0 722.3 0 666.8C0 611.3 0 555.7 0 500C0 444.3 0 388.7 0 333.2C0 277.7 0 222.3 0 166.8C0 111.3 0 55.7 0 27.8L0 0Z" fill="#0066FF" stroke-linecap="round" stroke-linejoin="miter"></path></svg>