<svg id="visual" viewBox="0 0 1440 1000" width="1440" height="1000" xmlns="http://www.w3.org/2000/svg" xmlns:xlink="http://www.w3.org/1999/xlink" version="1.1"><rect x="0" y="0" width="1440" height="1000" fill="#c0e8fc"></rect><path d="M1001 1000L1036.2 972.2C1071.3 944.3 1141.7 888.7 1174 833.2C1206.3 777.7 1200.7 722.3 1174.3 666.8C1148 611.3 1101 555.7 1065.3 500C1029.7 444.3 1005.3 388.7 994.5 333.2C983.7 277.7 986.3 222.3 1001.7 166.8C1017 111.3 1045 55.7 1059 27.8L1073 0L1440 0L1440 27.8C1440 55.7 1440 111.3 1440 166.8C1440 222.3 1440 277.7 1440 333.2C1440 388.7 1440 444.3 1440 500C1440 555.7 1440 611.3 1440 666.8C1440 722.3 1440 777.7 1440 833.2C1440 888.7 1440 944.3 1440 972.2L1440 1000Z" fill="#0066FF" stroke-linecap="round" stroke-linejoin="miter"></path></svg>